<svg xmlns="http://www.w3.org/2000/svg" width="317" height="312" viewBox="0 0 317 312">
<g>
<path d="M 286.45 237.15 C295.28,242.54 302.82,246.97 303.22,246.98 C303.61,246.99 305.53,244.64 307.49,241.75 C313.59,232.71 315.73,230.06 316.37,230.71 C316.72,231.05 317.00,179.28 317.00,115.67 L 317.00 312.00 L 316.78 274.75 C316.65,254.26 316.42,245.26 316.25,254.75 C316.09,264.24 315.76,272.00 315.53,272.00 C315.29,272.00 306.19,268.67 295.30,264.60 C269.97,255.14 235.65,243.61 226.00,241.32 C220.75,240.08 214.60,239.56 205.50,239.59 C193.61,239.63 191.92,239.87 185.76,242.42 C176.82,246.11 170.49,250.68 171.91,252.39 C172.49,253.09 176.06,255.51 179.84,257.76 C186.37,261.66 210.24,277.00 222.00,284.85 L 227.50 288.52 L 227.80 295.92 C227.96,299.98 227.73,303.67 227.29,304.11 C226.85,304.55 214.57,300.86 199.99,295.90 C183.90,290.43 170.46,286.46 165.75,285.79 C158.37,284.74 158.00,284.56 157.96,282.09 C157.56,256.85 157.64,223.00 158.09,223.00 C159.02,223.00 159.75,220.45 170.10,181.00 C172.92,170.27 176.71,156.32 178.54,150.00 C184.63,128.86 186.00,122.34 186.00,114.48 C186.00,100.86 181.83,89.66 168.55,67.65 C164.95,61.68 162.00,56.41 162.00,55.95 C162.00,55.49 161.10,54.49 160.01,53.72 C158.12,52.40 158.01,50.99 157.76,26.41 L 157.50 0.50 L 3.73 0.00 L 238.50 0.00 C195.32,0.00 160.00,0.27 160.00,0.61 C160.00,0.94 161.27,2.85 162.83,4.86 C167.03,10.28 178.80,28.14 185.67,39.50 C204.30,70.37 211.22,96.90 206.47,119.29 C205.63,123.26 201.63,137.52 197.58,151.00 C193.52,164.48 190.44,175.88 190.72,176.35 C191.01,176.82 195.13,179.69 199.87,182.74 C204.62,185.79 210.75,189.73 213.50,191.49 C216.25,193.26 223.90,198.01 230.50,202.04 C237.10,206.07 248.78,213.42 256.45,218.36 C264.12,223.30 277.62,231.76 286.45,237.15 Z" fill="rgb(10,124,184)"/>
<path d="M 11.73 244.75 C12.00,245.44 12.97,246.00 13.89,246.00 C15.27,246.00 45.43,227.74 67.50,213.54 C70.25,211.77 73.18,210.02 74.00,209.64 C74.82,209.27 79.32,206.52 84.00,203.54 C91.36,198.84 99.12,194.02 121.22,180.41 C123.81,178.81 125.95,177.01 125.97,176.40 C125.99,175.80 124.15,169.05 121.89,161.40 C115.13,138.51 110.12,119.50 108.95,112.29 C106.91,99.76 110.23,81.46 117.58,64.64 C122.32,53.79 135.92,30.69 147.53,13.75 L 156.62 0.50 L 157.50 0.50 L 157.76 26.41 C157.99,49.61 158.11,52.17 159.71,53.49 C158.22,52.89 156.29,54.79 153.06,59.73 C138.28,82.26 131.14,98.46 130.26,111.50 C129.68,120.17 130.24,123.03 137.96,151.00 C141.37,163.38 144.82,175.98 145.62,179.00 C150.27,196.52 156.27,217.89 157.23,220.39 L 158.24 222.97 C158.19,222.99 158.14,223.00 158.09,223.00 C157.64,223.00 157.56,256.85 157.96,282.09 C158.00,284.41 158.33,284.71 164.44,285.60 L 158.50 285.61 L 147.50 285.62 L 118.60 295.38 C95.96,303.03 89.52,304.85 88.87,303.82 C88.41,303.09 88.02,299.27 88.02,295.32 L 88.00 288.14 L 94.25 284.35 C97.69,282.26 105.48,277.39 111.58,273.53 C117.67,269.66 125.24,264.92 128.39,263.00 C131.55,261.08 136.88,257.75 140.25,255.61 L 146.36 251.71 L 143.93 249.71 C140.00,246.47 127.93,241.11 122.11,240.02 C109.83,237.70 94.45,239.73 76.50,246.05 C61.20,251.43 18.99,266.06 9.25,269.36 L 0.00 272.49 L 0.00 114.92 C0.00,178.12 0.34,229.98 0.76,230.17 C1.70,230.58 11.05,243.02 11.73,244.75 ZM 161.12 214.81 C162.46,209.95 164.90,200.68 169.96,181.50 C172.85,170.50 176.71,156.32 178.54,150.00 C176.71,156.32 172.92,170.27 170.10,181.00 C165.49,198.59 162.78,208.85 161.12,214.81 ZM 160.52 54.10 C161.37,54.79 162.00,55.56 162.00,55.95 C162.00,56.17 162.68,57.50 163.78,59.48 C162.38,57.11 161.38,55.42 161.14,55.00 C160.94,54.64 160.73,54.34 160.52,54.10 ZM 158.63 222.54 L 159.27 220.89 C159.43,220.47 159.58,220.06 159.76,219.49 C159.24,221.20 158.90,222.09 158.63,222.54 ZM 194.83 294.16 C196.51,294.72 198.24,295.30 199.99,295.90 C200.71,296.14 201.41,296.38 202.11,296.62 C200.76,296.17 199.39,295.71 198.00,295.24 Z" fill="rgb(26,61,107)"/>
<path d="M 0.00 292.25 L 0.00 272.49 L 9.25 269.36 C18.99,266.06 61.20,251.43 76.50,246.05 C94.45,239.73 109.83,237.70 122.11,240.02 C127.93,241.11 140.00,246.47 143.93,249.71 L 146.36 251.71 L 140.25 255.61 C136.88,257.75 131.55,261.08 128.39,263.00 C125.24,264.92 117.67,269.66 111.58,273.53 C105.48,277.39 97.69,282.26 94.25,284.35 L 88.00 288.14 L 88.02 295.32 C88.02,299.27 88.41,303.09 88.87,303.82 C89.52,304.85 95.96,303.03 118.60,295.38 L 147.50 285.62 L 158.50 285.61 L 169.50 285.59 L 198.00 295.24 C213.68,300.54 226.86,304.53 227.30,304.09 C227.74,303.66 227.96,299.98 227.80,295.92 L 227.50 288.52 L 222.00 284.85 C210.24,277.00 186.37,261.66 179.84,257.76 C176.06,255.51 172.49,253.09 171.91,252.39 C170.49,250.68 176.82,246.11 185.76,242.42 C191.92,239.87 193.61,239.63 205.50,239.59 C214.60,239.56 220.75,240.08 226.00,241.32 C235.65,243.61 269.97,255.14 295.30,264.60 C306.19,268.67 315.29,272.00 315.53,272.00 C315.76,272.00 316.09,264.24 316.25,254.75 C316.42,245.26 316.65,254.26 316.78,274.75 L 317.00 312.00 L 158.50 312.00 L 0.00 312.00 L 0.00 292.25 ZM 286.45 237.15 C277.62,231.76 264.12,223.30 256.45,218.36 C248.78,213.42 237.10,206.07 230.50,202.04 C223.90,198.01 216.25,193.26 213.50,191.49 C210.75,189.73 204.62,185.79 199.87,182.74 C195.13,179.69 191.01,176.82 190.72,176.35 C190.44,175.88 193.52,164.48 197.58,151.00 C201.63,137.52 205.63,123.26 206.47,119.29 C211.22,96.90 204.30,70.37 185.67,39.50 C178.80,28.14 167.03,10.28 162.83,4.86 C161.27,2.85 160.00,0.94 160.00,0.61 C160.00,0.27 195.32,0.00 238.50,0.00 L 317.00 0.00 L 317.00 115.67 C317.00,179.28 316.72,231.05 316.37,230.71 C315.73,230.06 313.59,232.71 307.49,241.75 C305.53,244.64 303.61,246.99 303.22,246.98 C302.82,246.97 295.28,242.54 286.45,237.15 ZM 11.73 244.75 C11.05,243.02 1.70,230.58 0.76,230.17 C0.34,229.98 0.00,178.12 0.00,114.92 L 0.00 0.00 L 78.48 0.00 L 156.96 0.00 L 147.53 13.75 C135.92,30.69 122.32,53.79 117.58,64.64 C110.23,81.46 106.91,99.76 108.95,112.29 C110.12,119.50 115.13,138.51 121.89,161.40 C124.15,169.05 125.99,175.80 125.97,176.40 C125.95,177.01 123.81,178.81 121.22,180.41 C99.12,194.02 91.36,198.84 84.00,203.54 C79.32,206.52 74.82,209.27 74.00,209.64 C73.18,210.02 70.25,211.77 67.50,213.54 C45.43,227.74 15.27,246.00 13.89,246.00 C12.97,246.00 12.00,245.44 11.73,244.75 ZM 157.23 220.39 C156.27,217.89 150.27,196.52 145.62,179.00 C144.82,175.98 141.37,163.38 137.96,151.00 C130.24,123.03 129.68,120.17 130.26,111.50 C131.14,98.46 138.28,82.26 153.06,59.73 C157.41,53.09 159.39,51.93 161.14,55.00 C161.61,55.83 164.94,61.45 168.55,67.50 C181.96,90.03 186.00,100.90 186.00,114.48 C186.00,122.34 184.63,128.86 178.54,150.00 C176.71,156.32 172.85,170.50 169.96,181.50 C160.82,216.20 160.21,218.45 159.27,220.89 L 158.36 223.27 L 157.23 220.39 Z" fill="rgb(253,254,254)"/>
</g>
</svg>